<svg width="9" height="15" viewBox="0 0 9 15" fill="none" xmlns="http://www.w3.org/2000/svg">
<path fill-rule="evenodd" clip-rule="evenodd" d="M7.77802 0.707078C7.3875 0.316553 6.75433 0.316554 6.36381 0.707078L0.706956 6.36393C0.467871 6.60302 0.375157 6.93304 0.428815 7.24266C0.375206 7.55224 0.467928 7.88221 0.706979 8.12126L6.36383 13.7781C6.75436 14.1686 7.38752 14.1686 7.77805 13.7781C8.16857 13.3876 8.16857 12.7544 7.77805 12.3639L2.65673 7.24259L7.77802 2.12129C8.16855 1.73077 8.16855 1.0976 7.77802 0.707078Z" fill="#5C5DF4"/>
<path d="M6.36381 0.707078L6.18703 0.530301V0.530301L6.36381 0.707078ZM7.77802 0.707078L7.60125 0.883854V0.883854L7.77802 0.707078ZM0.706956 6.36393L0.883732 6.54071H0.883732L0.706956 6.36393ZM0.428815 7.24266L0.675149 7.28532L0.682539 7.24265L0.675143 7.19997L0.428815 7.24266ZM0.706979 8.12126L0.883755 7.94449H0.883755L0.706979 8.12126ZM6.36383 13.7781L6.54061 13.6013L6.36383 13.7781ZM7.77805 13.7781L7.60127 13.6013H7.60127L7.77805 13.7781ZM7.77805 12.3639L7.60127 12.5407L7.77805 12.3639ZM2.65673 7.24259L2.47995 7.06581L2.30318 7.24259L2.47995 7.41936L2.65673 7.24259ZM7.77802 2.12129L7.60125 1.94451V1.94451L7.77802 2.12129ZM6.54059 0.883855C6.83348 0.590961 7.30835 0.590961 7.60125 0.883854L7.9548 0.530301C7.46664 0.0421455 6.67519 0.0421459 6.18703 0.530301L6.54059 0.883855ZM0.883732 6.54071L6.54059 0.883855L6.18703 0.530301L0.530179 6.18715L0.883732 6.54071ZM0.675143 7.19997C0.634774 6.96703 0.704564 6.71988 0.883732 6.54071L0.530179 6.18715C0.231177 6.48616 0.115541 6.89906 0.182487 7.28535L0.675143 7.19997ZM0.883755 7.94449C0.704613 7.76534 0.634816 7.51823 0.675149 7.28532L0.182481 7.20001C0.115597 7.58625 0.231243 7.99908 0.530202 8.29804L0.883755 7.94449ZM6.54061 13.6013L0.883755 7.94449L0.530202 8.29804L6.18706 13.9549L6.54061 13.6013ZM7.60127 13.6013C7.30838 13.8942 6.8335 13.8942 6.54061 13.6013L6.18706 13.9549C6.67521 14.443 7.46667 14.443 7.95482 13.9549L7.60127 13.6013ZM7.60127 12.5407C7.89416 12.8336 7.89416 13.3084 7.60127 13.6013L7.95482 13.9549C8.44298 13.4667 8.44298 12.6753 7.95482 12.1871L7.60127 12.5407ZM2.47995 7.41936L7.60127 12.5407L7.95482 12.1871L2.83351 7.06581L2.47995 7.41936ZM7.60125 1.94451L2.47995 7.06581L2.83351 7.41936L7.9548 2.29807L7.60125 1.94451ZM7.60125 0.883854C7.89414 1.17675 7.89414 1.65162 7.60125 1.94451L7.9548 2.29807C8.44296 1.80991 8.44296 1.01846 7.9548 0.530301L7.60125 0.883854Z" fill="white"/>
</svg>
