<svg width="32" height="32" viewBox="0 0 32 32" fill="none" xmlns="http://www.w3.org/2000/svg">
<path d="M3.04541 10.5819C3.04541 8.28404 8.04541 1.08191 16.0454 1.08191C24.0454 1.08191 28.5454 7.78404 28.5454 10.0819C26.0454 8.93297 27.7121 10.4755 26.5454 9.45425L29.5 15L27.5454 14.5L29.5 18L28 18.6457L31.0454 23.2415L20.5454 30.5819H11.5454L1.04541 23.2415L3.5 18.6457L2 19.5L4.5 13.5L2.5 14.5L5.54541 9.45425C4.37874 10.4755 5.54541 9.43297 3.04541 10.5819Z" fill="white"/>
<path d="M3.04541 10.5819C4.59082 7.42589 7.95459 1 16 1C24.0454 1 27.5454 7.58191 28.5454 10.0819L26.5454 9.58191L29.5454 15.0819L27.0454 14.0819L30.0454 19.0819L27.5454 18.1196L31 23.4317C30.0285 28.6146 22.5981 30.5323 16 30.5819C8.48714 30.5009 1.59169 28.7102 1 23.4317L3.5 18.5L1.54541 19.6977L4.04541 14.0819L2.04541 15.0819L5.04541 10.0819L3.04541 10.5819Z" fill="#F5F5F7" stroke="#041039" stroke-width="1.3"/>
<path d="M12.5454 12.5819L16.0454 8.08191L20.0454 12.5819C22.1168 13.1542 23.1175 13.7742 24.5454 15.5819L21.0454 18.0819C18.3415 20.0143 17.3504 21.2485 16.0454 23.5819C14.6121 20.8947 13.6518 19.6419 11.5454 18.0819L7.54541 15.5819C9.10346 13.8917 10.2234 13.2699 12.5454 12.5819Z" fill="#F7C945"/>
<path d="M12.5454 12.5819L16.0454 8.08191L20.0454 12.5819C22.1168 13.1542 23.1175 13.7742 24.5454 15.5819L21.0454 18.0819C18.3415 20.0143 17.3504 21.2485 16.0454 23.5819C14.6121 20.8947 13.6518 19.6419 11.5454 18.0819L7.54541 15.5819C9.10346 13.8917 10.2234 13.2699 12.5454 12.5819Z" fill="#ED9716" fill-opacity="0.5"/>
<path d="M12.5454 12.5819L16.0454 8.08191L20.0454 12.5819C22.1168 13.1542 23.1175 13.7742 24.5454 15.5819L21.0454 18.0819C18.3415 20.0143 17.3504 21.2485 16.0454 23.5819C14.6121 20.8947 13.6518 19.6419 11.5454 18.0819L7.54541 15.5819C9.10346 13.8917 10.2234 13.2699 12.5454 12.5819Z" stroke="#041039" stroke-width="1.3"/>
<ellipse cx="18.9784" cy="14.1979" rx="0.5" ry="1" transform="rotate(-30 18.9784 14.1979)" fill="#041039" stroke="#041039" stroke-width="0.5"/>
<ellipse rx="0.5" ry="1" transform="matrix(-0.866025 -0.5 -0.5 0.866025 13.9784 14.1979)" fill="#041039" stroke="#041039" stroke-width="0.5"/>
<path d="M14.7727 9.04345C15.3545 7.8896 14.7727 5.58191 13.0272 5.58191H9.53632C8.37268 5.58191 6.04541 6.73576 6.04541 9.04345C6.04541 11.3511 7.79086 13.0819 10.1181 13.0819C12.4454 13.0819 14.1909 10.1973 14.7727 9.04345Z" fill="#575E75" stroke="black"/>
<path d="M17.3181 9.04345C16.7363 7.8896 17.3181 5.58191 19.0636 5.58191H22.5545C23.7181 5.58191 26.0454 6.73576 26.0454 9.04345C26.0454 11.3511 24.3 13.0819 21.9727 13.0819C19.6454 13.0819 17.9 10.1973 17.3181 9.04345Z" fill="#575E75" stroke="black"/>
<path d="M12.4456 5.58191C16.9967 5.58191 18.6085 5.58191 18.8456 5.58191" stroke="#041039"/>
<path d="M14.7727 9.04344C16.8414 9.04344 17.5741 9.04344 17.6818 9.04344" stroke="#041039"/>
<path d="M10.0454 5.58191H12.0454L9.04541 12.5819H7.04541L10.0454 5.58191Z" fill="white"/>
<path d="M21.0454 5.58191H23.0454L20.0454 12.5819L18.5 11.5L21.0454 5.58191Z" fill="white"/>
<path d="M14.7727 9.04345C15.3545 7.8896 14.7727 5.58191 13.0272 5.58191H9.53632C8.37268 5.58191 6.04541 6.73576 6.04541 9.04345C6.04541 11.3511 7.79086 13.0819 10.1181 13.0819C12.4454 13.0819 14.1909 10.1973 14.7727 9.04345Z" stroke="#041039"/>
<path d="M17.3181 9.04345C16.7363 7.8896 17.3181 5.58191 19.0636 5.58191H22.5545C23.7181 5.58191 26.0454 6.73576 26.0454 9.04345C26.0454 11.3511 24.3 13.0819 21.9727 13.0819C19.6454 13.0819 17.9 10.1973 17.3181 9.04345Z" stroke="#041039"/>
</svg>
