<svg width="9" height="9" viewBox="0 0 9 9" fill="none" xmlns="http://www.w3.org/2000/svg">
<path d="M4.5 0.140625C2.0918 0.140625 0.140625 2.0918 0.140625 4.5C0.140625 6.9082 2.0918 8.85938 4.5 8.85938C6.9082 8.85938 8.85938 6.9082 8.85938 4.5C8.85938 2.0918 6.9082 0.140625 4.5 0.140625ZM4.5 8.01562C2.55762 8.01562 0.984375 6.44238 0.984375 4.5C0.984375 2.55762 2.55762 0.984375 4.5 0.984375C6.44238 0.984375 8.01562 2.55762 8.01562 4.5C8.01562 6.44238 6.44238 8.01562 4.5 8.01562ZM5.58633 6.18047L4.09395 5.0959C4.03945 5.05547 4.00781 4.99219 4.00781 4.92539V2.03906C4.00781 1.92305 4.10273 1.82812 4.21875 1.82812H4.78125C4.89727 1.82812 4.99219 1.92305 4.99219 2.03906V4.52988L6.16641 5.38418C6.26133 5.45273 6.28066 5.58457 6.21211 5.67949L5.88164 6.13477C5.81309 6.22793 5.68125 6.24902 5.58633 6.18047Z" fill="white"/>
</svg>
