<svg width="12" height="8" viewBox="0 0 12 8" fill="none" xmlns="http://www.w3.org/2000/svg">
<path d="M1.8 3.42857C2.46187 3.42857 3 2.91607 3 2.28571C3 1.65536 2.46187 1.14286 1.8 1.14286C1.13813 1.14286 0.6 1.65536 0.6 2.28571C0.6 2.91607 1.13813 3.42857 1.8 3.42857ZM10.2 3.42857C10.8619 3.42857 11.4 2.91607 11.4 2.28571C11.4 1.65536 10.8619 1.14286 10.2 1.14286C9.53813 1.14286 9 1.65536 9 2.28571C9 2.91607 9.53813 3.42857 10.2 3.42857ZM10.8 4H9.6C9.27 4 8.97188 4.12679 8.75438 4.33214C9.51 4.72679 10.0463 5.43929 10.1625 6.28571H11.4C11.7319 6.28571 12 6.03036 12 5.71429V5.14286C12 4.5125 11.4619 4 10.8 4ZM6 4C7.16062 4 8.1 3.10536 8.1 2C8.1 0.894643 7.16062 0 6 0C4.83938 0 3.9 0.894643 3.9 2C3.9 3.10536 4.83938 4 6 4ZM7.44 4.57143H7.28438C6.89438 4.75 6.46125 4.85714 6 4.85714C5.53875 4.85714 5.1075 4.75 4.71563 4.57143H4.56C3.3675 4.57143 2.4 5.49286 2.4 6.62857V7.14286C2.4 7.61607 2.80313 8 3.3 8H8.7C9.19688 8 9.6 7.61607 9.6 7.14286V6.62857C9.6 5.49286 8.6325 4.57143 7.44 4.57143ZM3.24563 4.33214C3.02813 4.12679 2.73 4 2.4 4H1.2C0.538125 4 0 4.5125 0 5.14286V5.71429C0 6.03036 0.268125 6.28571 0.6 6.28571H1.83563C1.95375 5.43929 2.49 4.72679 3.24563 4.33214Z" fill="white"/>
</svg>
