<svg width="12" height="14" viewBox="0 0 12 14" fill="none" xmlns="http://www.w3.org/2000/svg">
<path d="M0.342219 9.48492L2.96727 8.33769C3.0794 8.28896 3.20403 8.27869 3.32239 8.30843C3.44075 8.33817 3.54643 8.40632 3.62353 8.50261L4.78605 9.95098C6.61051 9.07378 8.07879 7.57652 8.93901 5.71603L7.51867 4.53056C7.42406 4.45209 7.35709 4.34432 7.32791 4.22357C7.29873 4.10282 7.30893 3.97566 7.35695 3.86134L8.48197 1.18447C8.53468 1.06124 8.6279 0.96063 8.74556 0.899983C8.86323 0.839335 8.99795 0.822455 9.12651 0.852253L11.5641 1.42587C11.688 1.45506 11.7986 1.52622 11.8778 1.62775C11.9569 1.72928 12 1.85518 12 1.9849C12 8.11542 7.12726 13.0748 1.12481 13.0748C0.997562 13.0749 0.874046 13.031 0.774432 12.9502C0.674819 12.8695 0.604996 12.7567 0.576365 12.6302L0.013855 10.1446C-0.0151777 10.0128 0.00172615 9.87491 0.0616589 9.75451C0.121591 9.63411 0.220801 9.53878 0.342219 9.48492Z" fill="black"/>
<path d="M0.342219 9.48492L2.96727 8.33769C3.0794 8.28896 3.20403 8.27869 3.32239 8.30843C3.44075 8.33817 3.54643 8.40632 3.62353 8.50261L4.78605 9.95098C6.61051 9.07378 8.07879 7.57652 8.93901 5.71603L7.51867 4.53056C7.42406 4.45209 7.35709 4.34432 7.32791 4.22357C7.29873 4.10282 7.30893 3.97566 7.35695 3.86134L8.48197 1.18447C8.53468 1.06124 8.6279 0.96063 8.74556 0.899983C8.86323 0.839335 8.99795 0.822455 9.12651 0.852253L11.5641 1.42587C11.688 1.45506 11.7986 1.52622 11.8778 1.62775C11.9569 1.72928 12 1.85518 12 1.9849C12 8.11542 7.12726 13.0748 1.12481 13.0748C0.997562 13.0749 0.874046 13.031 0.774432 12.9502C0.674819 12.8695 0.604996 12.7567 0.576365 12.6302L0.013855 10.1446C-0.0151777 10.0128 0.00172615 9.87491 0.0616589 9.75451C0.121591 9.63411 0.220801 9.53878 0.342219 9.48492Z" fill="#7D7DF6"/>
</svg>
