<svg width="13" height="12" viewBox="0 0 13 12" fill="none" xmlns="http://www.w3.org/2000/svg">
<path d="M1.26183 1.15565C2.65321 -0.00373614 4.7225 0.204804 5.99963 1.49328L6.49981 1.99726L7 1.49328C8.27458 0.204804 10.3464 -0.00373614 11.7378 1.15565C13.3323 2.48633 13.4161 4.87461 11.9892 6.31702L7.07617 11.2773C6.75879 11.5976 6.24337 11.5976 5.926 11.2773L1.013 6.31702C-0.41646 4.87461 -0.332672 2.48633 1.26183 1.15565Z" fill="black"/>
<path d="M1.26183 1.15565C2.65321 -0.00373614 4.7225 0.204804 5.99963 1.49328L6.49981 1.99726L7 1.49328C8.27458 0.204804 10.3464 -0.00373614 11.7378 1.15565C13.3323 2.48633 13.4161 4.87461 11.9892 6.31702L7.07617 11.2773C6.75879 11.5976 6.24337 11.5976 5.926 11.2773L1.013 6.31702C-0.41646 4.87461 -0.332672 2.48633 1.26183 1.15565Z" fill="#7D7DF6"/>
</svg>
