<svg width="9" height="9" viewBox="0 0 9 9" fill="none" xmlns="http://www.w3.org/2000/svg">
<path d="M4.5 0.140686C2.0918 0.140686 0.140625 2.09186 0.140625 4.50006C0.140625 6.90826 2.0918 8.85944 4.5 8.85944C6.9082 8.85944 8.85938 6.90826 8.85938 4.50006C8.85938 2.09186 6.9082 0.140686 4.5 0.140686ZM4.5 8.01569C2.55762 8.01569 0.984375 6.44244 0.984375 4.50006C0.984375 2.55768 2.55762 0.984436 4.5 0.984436C6.44238 0.984436 8.01562 2.55768 8.01562 4.50006C8.01562 6.44244 6.44238 8.01569 4.5 8.01569ZM5.58633 6.18053L4.09395 5.09596C4.03945 5.05553 4.00781 4.99225 4.00781 4.92545V2.03912C4.00781 1.92311 4.10273 1.82819 4.21875 1.82819H4.78125C4.89727 1.82819 4.99219 1.92311 4.99219 2.03912V4.52994L6.16641 5.38424C6.26133 5.4528 6.28066 5.58463 6.21211 5.67955L5.88164 6.13483C5.81309 6.22799 5.68125 6.24908 5.58633 6.18053Z" fill="black"/>
</svg>
