<svg width="12" height="8" viewBox="0 0 12 8" fill="none" xmlns="http://www.w3.org/2000/svg">
<path d="M1.8 3.42863C2.46187 3.42863 3 2.91613 3 2.28578C3 1.65542 2.46187 1.14292 1.8 1.14292C1.13813 1.14292 0.6 1.65542 0.6 2.28578C0.6 2.91613 1.13813 3.42863 1.8 3.42863ZM10.2 3.42863C10.8619 3.42863 11.4 2.91613 11.4 2.28578C11.4 1.65542 10.8619 1.14292 10.2 1.14292C9.53813 1.14292 9 1.65542 9 2.28578C9 2.91613 9.53813 3.42863 10.2 3.42863ZM10.8 4.00006H9.6C9.27 4.00006 8.97188 4.12685 8.75438 4.3322C9.51 4.72685 10.0463 5.43935 10.1625 6.28578H11.4C11.7319 6.28578 12 6.03042 12 5.71435V5.14292C12 4.51256 11.4619 4.00006 10.8 4.00006ZM6 4.00006C7.16062 4.00006 8.1 3.10542 8.1 2.00006C8.1 0.894704 7.16062 6.10352e-05 6 6.10352e-05C4.83938 6.10352e-05 3.9 0.894704 3.9 2.00006C3.9 3.10542 4.83938 4.00006 6 4.00006ZM7.44 4.57149H7.28438C6.89438 4.75006 6.46125 4.8572 6 4.8572C5.53875 4.8572 5.1075 4.75006 4.71563 4.57149H4.56C3.3675 4.57149 2.4 5.49292 2.4 6.62863V7.14292C2.4 7.61613 2.80313 8.00006 3.3 8.00006H8.7C9.19688 8.00006 9.6 7.61613 9.6 7.14292V6.62863C9.6 5.49292 8.6325 4.57149 7.44 4.57149ZM3.24563 4.3322C3.02813 4.12685 2.73 4.00006 2.4 4.00006H1.2C0.538125 4.00006 0 4.51256 0 5.14292V5.71435C0 6.03042 0.268125 6.28578 0.6 6.28578H1.83563C1.95375 5.43935 2.49 4.72685 3.24563 4.3322Z" fill="black"/>
</svg>
